<svg width="188" height="197" viewBox="0 0 188 197" fill="none" xmlns="http://www.w3.org/2000/svg">
<path d="M89.5 14.775C89.5 6.615 96.1516 -0.113419 104.22 1.10605C117.193 3.06681 129.695 7.60779 140.966 14.5149C156.455 24.0064 169.017 37.5963 177.264 53.7819C185.511 69.9676 189.122 88.1186 187.696 106.228C186.271 124.338 179.866 141.701 169.188 156.397C158.511 171.093 143.977 182.55 127.194 189.502C110.411 196.454 92.0332 198.629 74.0912 195.787C56.1493 192.946 39.3426 185.198 25.5294 173.4C15.4772 164.815 7.29524 154.328 1.42156 142.596C-2.23149 135.299 2.11217 126.894 9.8728 124.372C17.6334 121.851 25.8412 126.217 29.9554 133.264C33.8349 139.909 38.817 145.888 44.7206 150.93C54.3898 159.188 66.1545 164.612 78.7139 166.601C91.2732 168.59 104.138 167.068 115.886 162.201C127.634 157.335 137.807 149.315 145.282 139.028C152.756 128.74 157.24 116.586 158.237 103.91C159.235 91.233 156.708 78.5273 150.935 67.1974C145.162 55.8674 136.368 46.3545 125.526 39.7105C118.907 35.6539 111.681 32.7633 104.162 31.127C96.189 29.3917 89.5 22.935 89.5 14.775Z" fill="url(#paint0_linear_201_85)"/>
<defs>
<linearGradient id="paint0_linear_201_85" x1="-9" y1="82" x2="145" y2="178" gradientUnits="userSpaceOnUse">
<stop stop-color="#CE9FFC"/>
<stop offset="1" stop-color="#7367F0"/>
</linearGradient>
</defs>
</svg>
 


<svg width="197" height="197" viewBox="0 0 197 197" fill="none" xmlns="http://www.w3.org/2000/svg">
<path d="M98.5 14.775C98.5 6.615 105.152 -0.113552 113.22 1.1059C131.319 3.84143 148.404 11.5857 162.471 23.6C180.305 38.8316 192.118 59.9268 195.787 83.0912C199.456 106.256 194.739 129.969 182.485 149.966C170.231 169.963 151.243 184.932 128.938 192.179C106.633 199.426 82.4735 198.477 60.8057 189.502C39.1378 180.527 21.3833 164.115 10.7358 143.218C0.0883385 122.321 -2.75347 98.3107 2.72157 75.5056C7.04015 57.5175 16.3096 41.2104 29.3443 28.3588C35.155 22.6298 44.4914 24.1634 49.2877 30.765V30.765C54.084 37.3666 52.4674 46.5219 47.0368 52.6125C39.5144 61.0493 34.129 71.2663 31.4551 82.4039C27.6226 98.3675 29.6118 115.175 37.0651 129.803C44.5183 144.43 56.9464 155.919 72.114 162.201C87.2815 168.484 104.193 169.149 119.807 164.075C135.42 159.002 148.712 148.524 157.29 134.526C165.868 120.528 169.169 103.929 166.601 87.7139C164.033 71.4988 155.763 56.7321 143.279 46.07C134.57 38.6311 124.207 33.5308 113.163 31.127C105.189 29.3916 98.5 22.935 98.5 14.775V14.775Z" fill="url(#paint0_linear_201_104)"/>
<defs>
<linearGradient id="paint0_linear_201_104" x1="1.97421e-07" y1="82" x2="154" y2="178" gradientUnits="userSpaceOnUse">
<stop stop-color="#DF9780"/>
<stop offset="1" stop-color="#A66DE9"/>
</linearGradient>
</defs>
</svg>
